<svg width="363" height="100" viewBox="0 0 363 100" fill="none" xmlns="http://www.w3.org/2000/svg">
<g clip-path="url(#clip0_267_941)">
<path d="M100 50C99.9972 22.3864 77.6108 0 50 0C22.392 0 0.00852273 22.392 0 50C12.1562 36.0824 30.0398 27.2841 49.9688 27.2727C49.9744 27.2727 49.9801 27.2727 49.9858 27.2727C62.5341 27.2784 72.7045 37.4517 72.7045 50C72.7045 62.5511 62.5341 72.7216 49.9858 72.7273H49.9886C50.0199 72.7273 50.0483 72.7273 50.0767 72.7273C69.983 72.696 87.8551 63.9062 100 50ZM50 27.2727H50.0028C50.0057 27.2727 50.0057 27.2727 50.0085 27.2727H50.0057C50.0284 27.2727 50.0511 27.2727 50.0739 27.2727C50.0455 27.2727 50.0199 27.2727 49.9915 27.2727C49.9943 27.2727 49.9972 27.2727 50 27.2727Z" fill="url(#paint0_linear_267_941)"/>
<path d="M50.0795 72.727C50.054 72.727 50.0284 72.727 50.0057 72.727C37.4545 72.7242 27.2812 62.5537 27.2812 49.9997C27.2812 37.4486 37.4517 27.2753 50.0057 27.2725C49.9943 27.2725 49.983 27.2725 49.9716 27.2725C30.0398 27.2838 12.1562 36.0821 0 49.9997C0 77.6105 22.3864 99.9997 50 99.9997C77.6108 99.9997 99.9972 77.6105 100 49.9997C87.8551 63.906 69.983 72.6958 50.0795 72.727ZM49.9915 72.727C49.9886 72.727 49.983 72.727 49.9801 72.727C49.983 72.727 49.9858 72.727 49.9886 72.727C49.983 72.727 49.9744 72.727 49.9688 72.727C49.9801 72.727 49.9943 72.727 50.0057 72.727H50.0028C49.9972 72.727 49.9943 72.727 49.9915 72.727Z" fill="url(#paint1_linear_267_941)"/>
<path d="M50.0795 72.727C50.054 72.727 50.0284 72.727 50.0057 72.727C37.4545 72.7242 27.2812 62.5537 27.2812 49.9997C27.2812 37.4486 37.4517 27.2753 50.0057 27.2725C49.9943 27.2725 49.983 27.2725 49.9716 27.2725C30.0398 27.2838 12.1562 36.0821 0 49.9997C0 77.6105 22.3864 99.9997 50 99.9997C77.6108 99.9997 99.9972 77.6105 100 49.9997C87.8551 63.906 69.983 72.6958 50.0795 72.727ZM49.9915 72.727C49.9886 72.727 49.983 72.727 49.9801 72.727C49.983 72.727 49.9858 72.727 49.9886 72.727C49.983 72.727 49.9744 72.727 49.9688 72.727C49.9801 72.727 49.9943 72.727 50.0057 72.727H50.0028C49.9972 72.727 49.9943 72.727 49.9915 72.727Z" fill="url(#paint2_linear_267_941)"/>
<path d="M137.454 66.3537L125 33.9541H132.864L141.82 58.8855L150.748 33.9541H158.612L146.158 66.3537H137.454Z" fill="black"/>
<path d="M160.711 36.706C160.711 34.6846 162.362 33 164.405 33C166.448 33 168.1 34.6565 168.1 36.706C168.1 38.7275 166.476 40.412 164.405 40.412C162.39 40.3559 160.711 38.7275 160.711 36.706ZM161.355 66.3542V42.8827H167.512V66.3542H161.355Z" fill="black"/>
<path d="M171.598 63.3219L174.257 58.9982C175.964 60.5985 179.434 62.1988 182.317 62.1988C184.976 62.1988 186.235 61.132 186.235 59.672C186.235 55.7975 172.354 58.9701 172.354 49.7331C172.354 45.8025 175.796 42.3492 181.953 42.3492C185.396 42.3211 188.726 43.416 191.413 45.5498L188.922 49.7893C187.495 48.3013 184.836 47.0659 181.981 47.0659C179.742 47.0659 178.287 48.1047 178.287 49.4243C178.287 52.9057 192.14 49.9858 192.14 59.4755C192.14 63.743 188.502 66.9998 182.009 66.9998C178.007 66.9437 174.061 65.596 171.598 63.3219Z" fill="black"/>
<path d="M196.087 36.706C196.087 34.6846 197.738 33 199.781 33C201.796 33 203.475 34.6565 203.475 36.706C203.475 38.7275 201.852 40.412 199.781 40.412C197.766 40.3559 196.087 38.7275 196.087 36.706ZM196.73 66.3542V42.8827H202.859V66.3542H196.73Z" fill="black"/>
<path d="M207.449 54.6186C207.449 47.9646 212.095 42.3213 219.819 42.3213C227.544 42.3213 232.218 47.9646 232.218 54.6186C232.218 61.2726 227.572 66.9439 219.819 66.9439C212.067 66.9439 207.449 61.3287 207.449 54.6186ZM225.837 54.6186C225.837 50.9687 223.654 47.7961 219.819 47.7961C215.985 47.7961 213.858 50.9687 213.858 54.6186C213.858 58.2684 215.985 61.4691 219.819 61.4691C223.654 61.4691 225.837 58.2965 225.837 54.6186Z" fill="black"/>
<path d="M252.564 66.3548V52.2045C252.564 48.9477 250.857 47.8246 248.254 47.8246C246.127 47.8527 244.168 48.8915 242.937 50.6042V66.4109H236.779V42.8833H242.937V45.9436C244.98 43.5852 248.002 42.2375 251.109 42.2937C256.23 42.2937 258.721 45.2136 258.721 49.79V66.3548H252.564Z" fill="black"/>
<path d="M264.962 66.3537V33.9541H271.819V60.2893H285.477V66.3537H264.962Z" fill="black"/>
<path d="M303.836 66.3541V63.9395C302.241 65.8206 299.47 66.9717 296.447 66.9717C292.725 66.9717 288.303 64.4449 288.303 59.1947C288.303 53.7199 292.725 51.6423 296.447 51.6423C299.554 51.6423 302.297 52.6811 303.836 54.506V51.3334C303.836 48.947 301.821 47.4028 298.714 47.4028C296.167 47.4028 293.733 48.3855 291.885 50.1823L289.59 46.0271C292.417 43.5845 296.083 42.2649 299.834 42.3211C305.151 42.3211 310.077 44.4548 310.077 51.1931V66.3541H303.836ZM303.836 60.7108V57.7909C302.8 56.4433 300.897 55.7694 298.882 55.7694C296.475 55.7694 294.46 57.0609 294.46 59.3351C294.46 61.4969 296.447 62.7884 298.882 62.7884C300.897 62.7884 302.828 62.1146 303.836 60.7108Z" fill="black"/>
<path d="M316.094 66.3537V33.9541H322.251V45.8864C323.958 43.6122 326.645 42.2927 329.472 42.2927C335.433 42.2927 339.855 46.9533 339.855 54.618C339.855 62.4231 335.405 66.9153 329.472 66.9153C326.645 66.9153 323.986 65.5676 322.251 63.3215V66.3537H316.094ZM327.513 61.4685C331.095 61.4685 333.474 58.7452 333.474 54.6461C333.474 50.547 331.095 47.7955 327.513 47.7955C325.526 47.7955 323.259 48.9747 322.223 50.5189V58.8294C323.259 60.3736 325.554 61.4685 327.513 61.4685Z" fill="black"/>
<path d="M342.458 63.3219L345.116 58.9982C346.824 60.5985 350.294 62.1988 353.177 62.1988C355.835 62.1988 357.095 61.132 357.095 59.672C357.095 55.7975 343.213 58.9701 343.213 49.7331C343.213 45.8025 346.656 42.3492 352.813 42.3492C356.255 42.3211 359.586 43.416 362.272 45.5498L359.782 49.7893C358.354 48.3013 355.695 47.0659 352.841 47.0659C350.602 47.0659 349.147 48.1047 349.147 49.4243C349.147 52.9057 363 49.9858 363 59.4755C363 63.743 359.362 66.9998 352.869 66.9998C348.867 66.9437 344.92 65.596 342.458 63.3219Z" fill="black"/>
</g>
<defs>
<linearGradient id="paint0_linear_267_941" x1="0.000173395" y1="36.3636" x2="100" y2="36.3636" gradientUnits="userSpaceOnUse">
<stop stop-color="#B71F68"/>
<stop offset="0.25" stop-color="#EB2156"/>
<stop offset="0.5" stop-color="#EF4B48"/>
<stop offset="0.75" stop-color="#F7962F"/>
<stop offset="1" stop-color="#F9C125"/>
</linearGradient>
<linearGradient id="paint1_linear_267_941" x1="0" y1="63.6361" x2="100" y2="63.6361" gradientUnits="userSpaceOnUse">
<stop stop-color="#8A3E7A"/>
<stop offset="0.25" stop-color="#824E87"/>
<stop offset="0.61" stop-color="#3A96B9"/>
<stop offset="0.74" stop-color="#27B1C6"/>
<stop offset="1" stop-color="#8ED6EC"/>
</linearGradient>
<linearGradient id="paint2_linear_267_941" x1="23.4399" y1="28.7926" x2="78.1739" y2="91.757" gradientUnits="userSpaceOnUse">
<stop stop-color="#561046" stop-opacity="0.9"/>
<stop offset="0.2498" stop-color="#651D52" stop-opacity="0"/>
</linearGradient>
<clipPath id="clip0_267_941">
<rect width="363" height="100" fill="white"/>
</clipPath>
</defs>
</svg>
